<svg width="39" height="26" viewBox="0 0 39 26" fill="none" xmlns="http://www.w3.org/2000/svg">
<rect width="39" height="26" rx="2" fill="#EEF3F9"/>
<path d="M17.6107 15.712C17.6107 17.154 16.0007 18.036 13.3687 18.036C10.7367 18.036 9.15472 17.154 9.15472 15.712C9.15472 14.27 10.7507 13.374 13.3687 13.374C15.9867 13.374 17.6107 14.27 17.6107 15.712ZM17.5127 5.632V8.978H19.3047V10.182H17.5127V13.262H16.0847V5.632H17.5127ZM15.3427 11.092L15.4687 12.156C13.1027 12.478 10.3027 12.604 7.61472 12.632L7.40472 11.428C8.13272 11.428 9.05672 11.428 9.95272 11.414V8.978H11.3807V11.386H11.4227C12.6827 11.344 14.4607 11.204 15.3427 11.092ZM14.5027 6.304C14.5027 8.04 14.4047 9.314 14.1807 10.434L12.7667 10.224C12.9347 9.454 13.0747 8.334 13.0747 7.438H8.27272V6.304H14.5027ZM13.3687 14.536C11.6607 14.536 10.6247 14.998 10.6247 15.712C10.6247 16.426 11.6887 16.888 13.3687 16.888C15.1047 16.888 16.1407 16.426 16.1407 15.712C16.1407 14.998 15.0907 14.536 13.3687 14.536ZM30.27 16.286H19V15.124H23.214V10.854H24.642V15.124H30.27V16.286ZM28.87 6.822C28.87 8.978 28.828 11.75 28.324 13.822L26.952 13.612C27.316 11.988 27.428 9.664 27.428 7.984H20.302V6.822H28.87Z" fill="black"/>
</svg>
