<svg width="15" height="16" viewBox="0 0 15 16" fill="none" xmlns="http://www.w3.org/2000/svg">
<path fill-rule="evenodd" clip-rule="evenodd" d="M5.47368 5.06974C4.37239 5.25402 2.58605 5.86397 2.50137 6.08474C2.33849 6.50904 2.69051 6.51375 4.00731 6.10452C5.13337 5.75466 5.5846 5.68439 6.76693 5.67497C8.25632 5.66299 8.7937 5.81295 9.44833 6.42275C10.0268 6.96162 9.81435 7.00631 6.3293 7.07712C4.50903 7.11414 2.99231 7.17472 2.95906 7.21174C2.92581 7.24875 2.64178 7.7502 2.32812 8.32608C1.83826 9.22518 1.77081 9.44379 1.85118 9.87174C2.05149 10.9395 2.57258 11.2036 2.91128 10.4089C3.3613 9.35252 4.43472 8.95258 5.28616 9.52402C5.5453 9.69795 5.86837 10.0667 6.00393 10.3433L6.25068 10.8464H8.2621H10.2737L10.4134 10.4762C10.7677 9.53856 11.7493 9.03174 12.5604 9.3676C13.0506 9.57074 13.6323 10.2326 13.6323 10.5875C13.6323 11.0146 14.4097 10.9437 14.578 10.5011C14.7714 9.99208 14.7376 8.88635 14.512 8.34627C14.2767 7.78318 13.3872 7.32602 12.0169 7.06393C11.3025 6.92729 10.9943 6.77747 10.3371 6.24722C9.37484 5.47075 8.90233 5.23316 7.96999 5.05627C7.16176 4.90295 6.44749 4.90685 5.47368 5.06974ZM3.94458 9.94133C3.21174 10.3122 3.32508 11.5652 4.11514 11.8258C5.32305 12.2244 6.08753 10.4469 4.93414 9.92154C4.5128 9.72958 4.35705 9.73268 3.94458 9.94133ZM11.483 9.93595C11.038 10.1684 10.853 10.8303 11.0933 11.3306C11.4499 12.0723 12.6807 12.0501 12.9672 11.2965C13.124 10.8843 13.0252 10.261 12.7694 10.0488C12.4808 9.80927 11.8341 9.75247 11.483 9.93595Z" fill="white"/>
<circle cx="4.58393" cy="10.7995" r="1.14423" fill="white"/>
<circle cx="12.123" cy="10.7995" r="1.14423" fill="white"/>
</svg>
