<svg width="24" height="24" viewBox="0 0 24 24" fill="none" xmlns="http://www.w3.org/2000/svg">
<path d="M10.5438 6.18338L11.2424 10.3009C11.2501 10.3463 12.7138 10.3975 13.6598 10.2233C13.787 10.1999 13.8482 10.0589 13.7885 9.94428C12.9261 8.28874 12.7044 7.42208 11.7309 6.25283C11.7164 6.23546 11.6983 6.22009 11.6787 6.20874C10.8614 5.73368 10.5873 5.94098 10.5439 6.12748C10.5397 6.14582 10.5407 6.16481 10.5438 6.18338Z" fill="#626971"/>
<path d="M6.30101 9.18464C6.62652 8.9115 7.66302 10.1467 8.18121 10.7643C11.9714 11.0919 19.5695 10.6527 19.4387 12.3677C19.3529 13.492 14.4141 12.9006 13.7627 13.4472C13.5372 13.6363 11.7947 15.6612 10.7233 17.0528C10.4255 17.4395 10.0532 17.7804 9.57514 17.8791C9.13128 17.9707 8.68243 17.9764 8.55124 17.8201C8.29215 17.5113 10.8386 13.2698 10.5795 12.9611C10.3723 12.714 8.54414 12.7399 7.65583 12.7837C7.09076 13.4332 6.23944 14.4981 5.76816 13.8414C5.58009 13.5794 6.22679 12.404 6.61913 11.5486C6.40445 10.8518 5.57272 9.79575 6.30101 9.18464Z" fill="#626971"/>
</svg>
