<svg width="24" height="24" viewBox="0 0 24 24" fill="none" xmlns="http://www.w3.org/2000/svg">
<path d="M6.42859 8.99364L10.0318 11.1052C10.0715 11.1285 11.0516 10.0401 11.5263 9.20348C11.5901 9.09104 11.5214 8.95352 11.3952 8.92558C9.57265 8.52207 8.7663 8.13475 7.24479 8.12897C7.2222 8.12889 7.19876 8.1329 7.17751 8.14057C6.28824 8.4613 6.27082 8.80457 6.38582 8.95765C6.39714 8.97271 6.41234 8.98412 6.42859 8.99364Z" fill="black"/>
<path d="M6 14.173C6 13.7481 7.6125 13.7481 8.41865 13.7481C11.1058 11.0552 15.6535 4.95241 16.8831 6.15498C17.6893 6.94339 14.0616 10.3466 14.0616 11.1969C14.0616 11.4912 14.4927 14.1276 14.8699 15.8429C14.9748 16.3196 14.9966 16.824 14.7649 17.2536C14.5497 17.6525 14.2656 18 14.0616 18C13.6585 18 12.0462 13.3229 11.6431 13.3229C11.3206 13.3229 10.1653 14.7399 9.62789 15.4486C9.76225 16.299 10.0308 17.6356 9.22481 17.5745C8.90317 17.5502 8.41847 16.2992 8.01539 15.4489C7.34359 15.1654 6 15.1237 6 14.173Z" fill="black"/>
</svg>
