<svg width="14" height="16" viewBox="0 0 14 16" fill="none" xmlns="http://www.w3.org/2000/svg">
<path d="M1.42859 4.93798L5.0318 7.04958C5.07149 7.07284 6.0516 5.98443 6.52626 5.14781C6.59005 5.03538 6.52142 4.89786 6.39521 4.86991C4.57265 4.4664 3.7663 4.07908 2.24479 4.07331C2.2222 4.07322 2.19876 4.07724 2.17751 4.0849C1.28824 4.40564 1.27082 4.74891 1.38582 4.90199C1.39714 4.91704 1.41234 4.92846 1.42859 4.93798Z" fill="white"/>
<path d="M1 10.1174C1 9.69243 2.6125 9.69242 3.41865 9.69242C6.10584 6.99954 10.6535 0.896744 11.8831 2.09932C12.6893 2.88773 9.06156 6.2909 9.06156 7.14128C9.06156 7.43557 9.49265 10.072 9.86993 11.7872C9.97479 12.2639 9.9966 12.7683 9.76489 13.1979C9.54975 13.5968 9.26565 13.9443 9.06156 13.9443C8.65848 13.9443 7.04617 9.26724 6.64309 9.26724C6.32063 9.26724 5.16532 10.6843 4.62789 11.3929C4.76225 12.2433 5.03078 13.58 4.22481 13.5189C3.90317 13.4945 3.41847 12.2436 3.01539 11.3932C2.34359 11.1097 1 11.0681 1 10.1174Z" fill="white"/>
</svg>
