<svg width="14" height="16" viewBox="0 0 14 16" fill="none" xmlns="http://www.w3.org/2000/svg">
<path fill-rule="evenodd" clip-rule="evenodd" d="M5.59689 3.14016C4.56697 3.36442 2.8072 4.06881 2.64331 4.32243C2.45845 4.60886 2.51148 6.73776 2.70848 6.93476C2.94098 7.16725 3.91412 7.16725 4.14662 6.93476C4.24549 6.83588 4.32639 6.5123 4.32639 6.21569C4.32639 5.47879 4.54435 5.31685 5.53652 5.31685C6.51176 5.31685 6.68059 5.45048 6.7495 6.27726C6.84373 7.4041 7.80129 7.4041 7.89552 6.27726C7.96443 5.45048 8.13326 5.31685 9.1085 5.31685C10.1007 5.31685 10.3186 5.47879 10.3186 6.21569C10.3186 6.5123 10.3995 6.83588 10.4984 6.93476C10.7309 7.16725 11.704 7.16725 11.9365 6.93476C12.1335 6.73776 12.1866 4.60886 12.0017 4.32243C11.8305 4.05743 10.0692 3.36457 8.97982 3.13357C7.78017 2.8792 6.78605 2.88115 5.59689 3.14016ZM1.51003 7.89352C1.26 8.14354 1.26 12.0778 1.51003 12.3278C1.74373 12.5615 2.32737 12.5589 2.48242 12.3234C2.54909 12.2223 2.71058 11.8346 2.84121 11.462L3.07895 10.7848H7.32251H11.5661L11.8038 11.462C11.9344 11.8346 12.0959 12.2223 12.1626 12.3234C12.3176 12.5589 12.9013 12.5615 13.135 12.3278C13.385 12.0778 13.385 8.14354 13.135 7.89352C12.877 7.63555 1.768 7.63555 1.51003 7.89352Z" fill="white"/>
</svg>
