<svg width="24" height="24" viewBox="0 0 24 24" fill="none" xmlns="http://www.w3.org/2000/svg">
<path fill-rule="evenodd" clip-rule="evenodd" d="M9.41157 4.89921C7.8667 5.2356 5.22704 6.29218 4.98121 6.67262C4.70391 7.10226 4.78346 10.2956 5.07895 10.5911C5.4277 10.9398 6.88741 10.9398 7.23616 10.5911C7.38447 10.4428 7.50581 9.95742 7.50581 9.51249C7.50581 8.40715 7.83277 8.16424 9.32101 8.16424C10.7839 8.16424 11.0371 8.36468 11.1405 9.60485C11.2818 11.2951 12.7182 11.2951 12.8595 9.60485C12.9629 8.36468 13.2161 8.16424 14.679 8.16424C16.1672 8.16424 16.4942 8.40715 16.4942 9.51249C16.4942 9.95742 16.6155 10.4428 16.7638 10.5911C17.1126 10.9398 18.5723 10.9398 18.921 10.5911C19.2165 10.2956 19.2961 7.10226 19.0188 6.67262C18.762 6.27511 16.12 5.23583 14.486 4.88932C12.6865 4.50777 11.1953 4.51069 9.41157 4.89921ZM3.28128 12.0292C2.90624 12.4043 2.90624 18.3056 3.28128 18.6806C3.63183 19.0312 4.50729 19.0274 4.73987 18.6741C4.83986 18.5224 5.0821 17.9409 5.27805 17.382L5.63466 16.3661H12H18.3653L18.722 17.382C18.9179 17.9409 19.1601 18.5224 19.2601 18.6741C19.4927 19.0274 20.3682 19.0312 20.7187 18.6806C21.0938 18.3056 21.0938 12.4043 20.7187 12.0292C20.3318 11.6423 3.66823 11.6423 3.28128 12.0292Z" fill="black"/>
</svg>
