<svg width="30" height="30" viewBox="0 0 30 30" fill="none" xmlns="http://www.w3.org/2000/svg">
<circle cx="15" cy="15" r="15" fill="#EEF3F9"/>
<path d="M15 11.8781C14.3435 11.0438 13.2905 10.5 12.114 10.5C10.1185 10.5 8.5 12.0449 8.5 13.9545C8.5 14.6899 8.69175 15.3697 8.90625 16C10.5995 18.9333 13.0305 20.9376 14.597 21.4444C14.818 21.5185 15.182 21.5185 15.403 21.4444C16.9695 20.9376 19.4005 19.3 21.0938 16C21.3083 15.3697 21.5 14.6899 21.5 13.9545C21.5 12.0449 19.8815 10.5 17.886 10.5C16.7095 10.5 15.6565 11.0438 15 11.8781Z" fill="#0062E3"/>
<path d="M14.5 11.3781C13.8435 10.5438 12.7905 10 11.614 10C9.6185 10 8 11.5449 8 13.4545C8 14.1899 8.19175 14.8697 8.40625 15.5C10.0995 18.4333 12.5305 20.4376 14.097 20.9444C14.318 21.0185 14.682 21.0185 14.903 20.9444C16.4695 20.4376 18.9005 18.8 20.5938 15.5C20.8083 14.8697 21 14.1899 21 13.4545C21 11.5449 19.3815 10 17.386 10C16.2095 10 15.1565 10.5438 14.5 11.3781Z" fill="#0062E3"/>
</svg>
