<svg width="30" height="30" viewBox="0 0 30 30" fill="none" xmlns="http://www.w3.org/2000/svg">
<circle cx="15" cy="15" r="15" fill="#EEF3F9"/>
<path d="M14.1071 11.6873L14.5 12.1866L14.8929 11.6873C15.4555 10.9724 16.3642 10.5 17.386 10.5C19.1271 10.5 20.5 11.8423 20.5 13.4545C20.5 14.0933 20.3366 14.6989 20.1322 15.3042C18.4961 18.4725 16.1765 20.0069 14.7491 20.4687L14.7491 20.4686L14.7439 20.4704C14.7009 20.4848 14.6124 20.5 14.5 20.5C14.3876 20.5 14.2991 20.4848 14.2561 20.4704L14.2561 20.4703L14.2509 20.4687C13.5615 20.2456 12.6235 19.6683 11.6371 18.7637C10.6679 17.8748 9.67949 16.6949 8.86386 15.2924C8.66124 14.691 8.5 14.0891 8.5 13.4545C8.5 11.8423 9.87293 10.5 11.614 10.5C12.6358 10.5 13.5445 10.9724 14.1071 11.6873Z" stroke="#0062E3"/>
</svg>
