<svg width="80" height="16" viewBox="0 0 80 16" fill="none" xmlns="http://www.w3.org/2000/svg">
<path d="M7.11684 1.66284C7.49282 0.954922 8.50718 0.954922 8.88316 1.66283L10.2255 4.19029C10.3701 4.46244 10.632 4.65275 10.9355 4.70612L13.7541 5.20177C14.5435 5.3406 14.857 6.30531 14.2999 6.88165L12.311 8.93935C12.0968 9.16092 11.9968 9.46885 12.0398 9.77397L12.4394 12.6078C12.5513 13.4015 11.7307 13.9977 11.0104 13.646L8.43878 12.3903C8.16189 12.255 7.83811 12.255 7.56122 12.3903L4.9896 13.646C4.26932 13.9977 3.44869 13.4015 3.56061 12.6078L3.96021 9.77397C4.00323 9.46885 3.90318 9.16092 3.68902 8.93936L1.70009 6.88165C1.14301 6.30531 1.45646 5.3406 2.24591 5.20177L5.06449 4.70612C5.36798 4.65275 5.62991 4.46244 5.77445 4.19029L7.11684 1.66284Z" fill="#D75D45"/>
<path d="M23.1168 1.66284C23.4928 0.954922 24.5072 0.954922 24.8832 1.66283L26.2255 4.19029C26.3701 4.46244 26.632 4.65275 26.9355 4.70612L29.7541 5.20177C30.5435 5.3406 30.857 6.30531 30.2999 6.88165L28.311 8.93935C28.0968 9.16092 27.9968 9.46885 28.0398 9.77397L28.4394 12.6078C28.5513 13.4015 27.7307 13.9977 27.0104 13.646L24.4388 12.3903C24.1619 12.255 23.8381 12.255 23.5612 12.3903L20.9896 13.646C20.2693 13.9977 19.4487 13.4015 19.5606 12.6078L19.9602 9.77397C20.0032 9.46885 19.9032 9.16092 19.689 8.93936L17.7001 6.88165C17.143 6.30531 17.4565 5.3406 18.2459 5.20177L21.0645 4.70612C21.368 4.65275 21.6299 4.46244 21.7745 4.19029L23.1168 1.66284Z" fill="#D75D45"/>
<path d="M39.1168 1.66284C39.4928 0.954922 40.5072 0.954922 40.8832 1.66283L42.2255 4.19029C42.3701 4.46244 42.632 4.65275 42.9355 4.70612L45.7541 5.20177C46.5435 5.3406 46.857 6.30531 46.2999 6.88165L44.311 8.93935C44.0968 9.16092 43.9968 9.46885 44.0398 9.77397L44.4394 12.6078C44.5513 13.4015 43.7307 13.9977 43.0104 13.646L40.4388 12.3903C40.1619 12.255 39.8381 12.255 39.5612 12.3903L36.9896 13.646C36.2693 13.9977 35.4487 13.4015 35.5606 12.6078L35.9602 9.77397C36.0032 9.46885 35.9032 9.16092 35.689 8.93936L33.7001 6.88165C33.143 6.30531 33.4565 5.3406 34.2459 5.20177L37.0645 4.70612C37.368 4.65275 37.6299 4.46244 37.7745 4.19029L39.1168 1.66284Z" fill="#D75D45"/>
<path d="M55.1168 1.66284C55.4928 0.954922 56.5072 0.954922 56.8832 1.66283L58.2255 4.19029C58.3701 4.46244 58.632 4.65275 58.9355 4.70612L61.7541 5.20177C62.5435 5.3406 62.857 6.30531 62.2999 6.88165L60.311 8.93935C60.0968 9.16092 59.9968 9.46885 60.0398 9.77397L60.4394 12.6078C60.5513 13.4015 59.7307 13.9977 59.0104 13.646L56.4388 12.3903C56.1619 12.255 55.8381 12.255 55.5612 12.3903L52.9896 13.646C52.2693 13.9977 51.4487 13.4015 51.5606 12.6078L51.9602 9.77397C52.0032 9.46885 51.9032 9.16092 51.689 8.93936L49.7001 6.88165C49.143 6.30531 49.4565 5.3406 50.2459 5.20177L53.0645 4.70612C53.368 4.65275 53.6299 4.46244 53.7745 4.19029L55.1168 1.66284Z" fill="#D75D45"/>
<path d="M71.1168 1.66284C71.4928 0.954922 72.5072 0.954922 72.8832 1.66283L74.2255 4.19029C74.3701 4.46244 74.632 4.65275 74.9355 4.70612L77.7541 5.20177C78.5435 5.3406 78.857 6.30531 78.2999 6.88165L76.311 8.93935C76.0968 9.16092 75.9968 9.46885 76.0398 9.77397L76.4394 12.6078C76.5513 13.4015 75.7307 13.9977 75.0104 13.646L72.4388 12.3903C72.1619 12.255 71.8381 12.255 71.5612 12.3903L68.9896 13.646C68.2693 13.9977 67.4487 13.4015 67.5606 12.6078L67.9602 9.77397C68.0032 9.46885 67.9032 9.16092 67.689 8.93936L65.7001 6.88165C65.143 6.30531 65.4565 5.3406 66.2459 5.20177L69.0645 4.70612C69.368 4.65275 69.6299 4.46244 69.7745 4.19029L71.1168 1.66284Z" fill="#D75D45"/>
</svg>
